<svg width="32" height="32" viewBox="0 0 32 32" fill="none" xmlns="http://www.w3.org/2000/svg">
<mask id="mask0_19_382" style="mask-type:alpha" maskUnits="userSpaceOnUse" x="0" y="0" width="32" height="32">
<rect width="32" height="32" fill="#D9D9D9"/>
</mask>
<g mask="url(#mask0_19_382)">
<path d="M14.939 25.7173C14.652 25.4304 14.503 25.0754 14.4919 24.6525C14.4808 24.2295 14.6187 23.8746 14.9057 23.5876L20.9767 17.5166H6.73029C6.30469 17.5166 5.94551 17.3702 5.65276 17.0775C5.36 16.7847 5.21362 16.4255 5.21362 15.9999C5.21362 15.5743 5.36 15.2152 5.65276 14.9224C5.94551 14.6297 6.30469 14.4833 6.73029 14.4833H20.9767L14.9057 8.40431C14.6187 8.11736 14.4808 7.76372 14.4919 7.34341C14.503 6.92312 14.652 6.5695 14.939 6.28255C15.2259 5.99559 15.5809 5.85211 16.0039 5.85211C16.4268 5.85211 16.7817 5.99559 17.0687 6.28255L25.7332 14.9391C25.8878 15.0714 25.9968 15.2316 26.0604 15.4195C26.1239 15.6074 26.1557 15.8009 26.1557 15.9999C26.1557 16.199 26.1239 16.3869 26.0604 16.5637C25.9968 16.7405 25.8878 16.9062 25.7332 17.0608L17.0687 25.7253C16.7817 26.0123 16.4268 26.1544 16.0039 26.1517C15.5809 26.1491 15.2259 26.0043 14.939 25.7173Z" fill="white"/>
</g>
</svg>
