<svg width="32" height="32" viewBox="0 0 32 32" fill="none" xmlns="http://www.w3.org/2000/svg">
<mask id="mask0_19_388" style="mask-type:alpha" maskUnits="userSpaceOnUse" x="0" y="0" width="32" height="32">
<rect width="32" height="32" fill="#D9D9D9"/>
</mask>
<g mask="url(#mask0_19_388)">
<path d="M14.3008 25.7174L5.63633 17.0609C5.48707 16.9116 5.37933 16.7472 5.31313 16.5678C5.24696 16.3883 5.21387 16.1991 5.21387 16C5.21387 15.801 5.24696 15.6117 5.31313 15.4322C5.37933 15.2528 5.48707 15.0884 5.63633 14.9391L14.3008 6.27465C14.5825 5.99301 14.9319 5.84796 15.349 5.83952C15.7662 5.83105 16.1267 5.97875 16.4305 6.28262C16.7344 6.56957 16.8919 6.92031 16.903 7.33482C16.9141 7.74931 16.7677 8.10848 16.4639 8.41235L10.3929 14.4833H24.6392C25.0648 14.4833 25.424 14.6297 25.7168 14.9225C26.0095 15.2152 26.1559 15.5744 26.1559 16C26.1559 16.4256 26.0095 16.7848 25.7168 17.0775C25.424 17.3703 25.0648 17.5167 24.6392 17.5167H10.3929L16.4639 23.5877C16.7455 23.8693 16.8919 24.2229 16.903 24.6485C16.9141 25.0742 16.7677 25.4305 16.4639 25.7174C16.1769 26.0213 15.8206 26.1732 15.395 26.1732C14.9694 26.1732 14.6047 26.0213 14.3008 25.7174Z" fill="white"/>
</g>
</svg>
