<svg width="32" height="32" viewBox="0 0 32 32" fill="none" xmlns="http://www.w3.org/2000/svg">
<mask id="mask0_19_589" style="mask-type:alpha" maskUnits="userSpaceOnUse" x="0" y="0" width="32" height="32">
<rect width="32" height="32" fill="#D9D9D9"/>
</mask>
<g mask="url(#mask0_19_589)">
<path d="M15.9947 19.1556C16.8797 19.1556 17.6314 18.8518 18.25 18.2441C18.8685 17.6365 19.1778 16.8902 19.1778 16.0052C19.1778 15.1203 18.8702 14.3685 18.2552 13.75C17.6402 13.1315 16.8902 12.8222 16.0052 12.8222C15.1202 12.8222 14.3722 13.1297 13.7611 13.7448C13.1499 14.3598 12.8444 15.1098 12.8444 15.9948C12.8444 16.8798 13.1482 17.6278 13.7558 18.2389C14.3634 18.85 15.1097 19.1556 15.9947 19.1556ZM16 22.6667C14.1555 22.6667 12.5833 22.0167 11.2833 20.7167C9.98328 19.4167 9.33328 17.8445 9.33328 16C9.33328 14.1556 9.98328 12.5833 11.2833 11.2833C12.5833 9.98335 14.1555 9.33335 16 9.33335C17.8444 9.33335 19.4166 9.98335 20.7166 11.2833C22.0166 12.5833 22.6666 14.1556 22.6666 16C22.6666 17.8445 22.0166 19.4167 20.7166 20.7167C19.4166 22.0167 17.8444 22.6667 16 22.6667ZM2.44438 17.7444C1.95921 17.7444 1.54717 17.5746 1.20828 17.235C0.869396 16.8954 0.699951 16.4824 0.699951 15.9961C0.699951 15.5098 0.869396 15.0982 1.20828 14.7611C1.54717 14.4241 1.95921 14.2556 2.44438 14.2556H5.55552C6.0407 14.2556 6.45273 14.4254 6.79162 14.765C7.13051 15.1047 7.29995 15.5176 7.29995 16.0039C7.29995 16.4902 7.13051 16.9019 6.79162 17.2389C6.45273 17.5759 6.0407 17.7444 5.55552 17.7444H2.44438ZM26.4444 17.7444C25.9592 17.7444 25.5472 17.5746 25.2083 17.235C24.8694 16.8954 24.7 16.4824 24.7 15.9961C24.7 15.5098 24.8694 15.0982 25.2083 14.7611C25.5472 14.4241 25.9592 14.2556 26.4444 14.2556H29.5555C30.0407 14.2556 30.4527 14.4254 30.7916 14.765C31.1305 15.1047 31.3 15.5176 31.3 16.0039C31.3 16.4902 31.1305 16.9019 30.7916 17.2389C30.4527 17.5759 30.0407 17.7444 29.5555 17.7444H26.4444ZM15.9961 7.30001C15.5098 7.30001 15.0981 7.13057 14.7611 6.79168C14.424 6.45279 14.2555 6.04076 14.2555 5.55558V2.44445C14.2555 1.95927 14.4253 1.54723 14.765 1.20835C15.1046 0.869457 15.5176 0.700012 16.0039 0.700012C16.4901 0.700012 16.9018 0.869457 17.2388 1.20835C17.5759 1.54723 17.7444 1.95927 17.7444 2.44445V5.55558C17.7444 6.04076 17.5746 6.45279 17.2349 6.79168C16.8953 7.13057 16.4823 7.30001 15.9961 7.30001ZM15.9961 31.3C15.5098 31.3 15.0981 31.1306 14.7611 30.7917C14.424 30.4528 14.2555 30.0408 14.2555 29.5556V26.4444C14.2555 25.9593 14.4253 25.5472 14.765 25.2083C15.1046 24.8695 15.5176 24.7 16.0039 24.7C16.4901 24.7 16.9018 24.8695 17.2388 25.2083C17.5759 25.5472 17.7444 25.9593 17.7444 26.4444V29.5556C17.7444 30.0408 17.5746 30.4528 17.2349 30.7917C16.8953 31.1306 16.4823 31.3 15.9961 31.3ZM7.39995 9.87778L5.65552 8.16668C5.30736 7.82592 5.13788 7.41405 5.14708 6.93105C5.15628 6.44802 5.325 6.0221 5.65322 5.65328C5.99242 5.30666 6.39982 5.13335 6.87542 5.13335C7.35102 5.13335 7.77031 5.30742 8.13328 5.65558L9.87772 7.40001C10.2037 7.74077 10.3648 8.14632 10.3611 8.61668C10.3574 9.08706 10.1963 9.49261 9.87772 9.83335C9.53699 10.1741 9.12587 10.3537 8.64438 10.3722C8.16292 10.3908 7.74811 10.2259 7.39995 9.87778ZM23.8666 26.3444L22.1222 24.6C21.7963 24.2593 21.6333 23.8546 21.6333 23.3861C21.6333 22.9176 21.8 22.5074 22.1333 22.1556C22.4666 21.8074 22.874 21.6352 23.3555 21.6389C23.837 21.6426 24.2518 21.8148 24.6 22.1556L26.3444 23.8333C26.6925 24.1741 26.862 24.586 26.8528 25.069C26.8436 25.552 26.6749 25.9779 26.3467 26.3467C26.0075 26.6934 25.6001 26.8667 25.1245 26.8667C24.6489 26.8667 24.2296 26.6926 23.8666 26.3444ZM22.1555 9.87778C21.8074 9.53705 21.6351 9.12593 21.6389 8.64445C21.6425 8.16298 21.8148 7.74817 22.1555 7.40001L23.8333 5.65558C24.174 5.30742 24.5859 5.13795 25.0689 5.14715C25.5519 5.15635 25.9779 5.32506 26.3467 5.65328C26.6933 5.99248 26.8666 6.39988 26.8666 6.87548C26.8666 7.35108 26.6925 7.77037 26.3444 8.13335L24.6 9.87778C24.274 10.2037 23.8732 10.3648 23.3974 10.3611C22.9217 10.3574 22.5077 10.1963 22.1555 9.87778ZM5.65322 26.3467C5.3066 26.0075 5.13328 25.6001 5.13328 25.1245C5.13328 24.6489 5.30736 24.2297 5.65552 23.8667L7.39995 22.1222C7.73773 21.7815 8.13884 21.6111 8.60329 21.6111C9.06773 21.6111 9.47853 21.7815 9.83568 22.1222C10.1896 22.463 10.3648 22.8741 10.3611 23.3556C10.3574 23.837 10.1851 24.2519 9.84438 24.6L8.16662 26.3444C7.82586 26.6926 7.41398 26.8621 6.93098 26.8529C6.44796 26.8437 6.02204 26.675 5.65322 26.3467Z" fill="white"/>
</g>
</svg>
