<svg width="32" height="32" viewBox="0 0 32 32" fill="none" xmlns="http://www.w3.org/2000/svg">
<mask id="mask0_19_595" style="mask-type:alpha" maskUnits="userSpaceOnUse" x="0" y="0" width="32" height="32">
<rect width="32" height="32" fill="#D9D9D9"/>
</mask>
<g mask="url(#mask0_19_595)">
<path d="M16.1001 29.8889C14.16 29.8889 12.3411 29.5196 10.6434 28.781C8.9458 28.0424 7.46309 27.0393 6.19531 25.7715C4.92751 24.5037 3.92433 23.021 3.18575 21.3233C2.44717 19.6257 2.07788 17.8068 2.07788 15.8667C2.07788 12.8607 2.96493 10.124 4.73901 7.65662C6.51308 5.18925 8.85938 3.45185 11.7779 2.44443C12.0594 2.34814 12.3334 2.32591 12.6001 2.37776C12.8668 2.42963 13.0976 2.52864 13.2927 2.67479C13.4754 2.82493 13.6094 3.0148 13.6945 3.24443C13.7797 3.47407 13.826 3.76666 13.8334 4.12219C13.8483 6.15184 14.1872 8.02963 14.8501 9.75556C15.5131 11.4815 16.4742 12.9666 17.7334 14.2111C18.9408 15.4333 20.3871 16.3759 22.0723 17.0389C23.7575 17.7018 25.6594 18.0667 27.7779 18.1333C28.1038 18.1481 28.3944 18.2083 28.6498 18.3139C28.905 18.4195 29.1144 18.5771 29.2779 18.7867C29.426 18.9955 29.5131 19.2333 29.539 19.5C29.5649 19.7667 29.5371 20.0333 29.4557 20.3C28.4705 23.1741 26.7565 25.4907 24.3138 27.25C21.8711 29.0093 19.1332 29.8889 16.1001 29.8889ZM16.1001 26.3778C17.9075 26.3778 19.5798 25.9148 21.1168 24.9889C22.6538 24.063 23.9409 22.8481 24.9779 21.3444C23.1557 21.0629 21.4075 20.5389 19.7335 19.7722C18.0594 19.0055 16.5705 17.9666 15.2668 16.6555C13.9483 15.3592 12.9075 13.8833 12.1446 12.2278C11.3816 10.5722 10.852 8.84072 10.5557 7.03329C9.08159 8.06294 7.88529 9.34071 6.96678 10.8666C6.04825 12.3926 5.58898 14.0592 5.58898 15.8667C5.58898 18.8049 6.60627 21.2913 8.64085 23.3259C10.6754 25.3605 13.1618 26.3778 16.1001 26.3778ZM22.5557 7.88886L20.3112 6.89999C19.9631 6.74848 19.789 6.47913 19.789 6.09193C19.789 5.7047 19.9631 5.43702 20.3112 5.28889L22.5557 4.27776L23.5446 2.05556C23.6961 1.7074 23.9654 1.53333 24.3526 1.53333C24.7398 1.53333 25.0075 1.7074 25.1557 2.05556L26.1598 4.28473L28.4223 5.28889C28.7705 5.43798 28.939 5.70858 28.9279 6.10069C28.9168 6.4928 28.7371 6.76294 28.389 6.91109L26.1598 7.88886L25.189 10.1333C25.0375 10.4814 24.7626 10.6611 24.3643 10.6722C23.966 10.6833 23.6927 10.5148 23.5446 10.1666L22.5557 7.88886Z" fill="white"/>
</g>
</svg>
