<svg width="32" height="32" viewBox="0 0 32 32" fill="none" xmlns="http://www.w3.org/2000/svg">
<mask id="mask0_19_583" style="mask-type:alpha" maskUnits="userSpaceOnUse" x="0" y="0" width="32" height="32">
<rect width="32" height="32" fill="#D9D9D9"/>
</mask>
<g mask="url(#mask0_19_583)">
<path d="M15.9961 6.85552C15.5098 6.85552 15.0981 6.68609 14.7611 6.34722C14.424 6.00833 14.2555 5.59629 14.2555 5.11109V2.22222C14.2555 1.73702 14.4253 1.32497 14.765 0.986086C15.1046 0.647197 15.5176 0.477753 16.0039 0.477753C16.4901 0.477753 16.9018 0.647197 17.2388 0.986086C17.5759 1.32497 17.7444 1.73702 17.7444 2.22222V5.11109C17.7444 5.59629 17.5746 6.00833 17.2349 6.34722C16.8953 6.68609 16.4823 6.85552 15.9961 6.85552ZM22.4555 9.54442C22.1148 9.20369 21.9444 8.79258 21.9444 8.31109C21.9444 7.82962 22.1148 7.41852 22.4555 7.07779L24.4778 5.04442C24.8269 4.69629 25.2401 4.52222 25.7174 4.52222C26.1946 4.52222 26.6074 4.69629 26.9555 5.04442C27.2963 5.38518 27.4666 5.79259 27.4666 6.26665C27.4666 6.74072 27.2963 7.14812 26.9555 7.48885L24.9 9.54442C24.5592 9.88515 24.1518 10.0555 23.6777 10.0555C23.2037 10.0555 22.7963 9.88515 22.4555 9.54442ZM26.8889 17.7444C26.4037 17.7444 25.9916 17.5746 25.6527 17.235C25.3139 16.8953 25.1444 16.4824 25.1444 15.9961C25.1444 15.5098 25.3139 15.0981 25.6527 14.7611C25.9916 14.4241 26.4037 14.2556 26.8889 14.2556H29.7777C30.2629 14.2556 30.675 14.4254 31.0139 14.765C31.3527 15.1046 31.5222 15.5176 31.5222 16.0039C31.5222 16.4902 31.3527 16.9018 31.0139 17.2389C30.675 17.5759 30.2629 17.7444 29.7777 17.7444H26.8889ZM24.5 26.9556L22.4778 24.9222C22.1148 24.5592 21.9333 24.1426 21.9333 23.6722C21.9333 23.2018 22.1148 22.7852 22.4778 22.4222C22.8185 22.0815 23.2296 21.9111 23.7111 21.9111C24.1925 21.9111 24.6037 22.0815 24.9444 22.4222L26.9777 24.4445C27.3259 24.7936 27.5 25.2123 27.5 25.7007C27.5 26.1891 27.3255 26.6074 26.9766 26.9556C26.6276 27.3037 26.2147 27.4778 25.7377 27.4778C25.2607 27.4778 24.8481 27.3037 24.5 26.9556ZM7.09995 9.54442L5.04438 7.48885C4.70365 7.14812 4.53328 6.74072 4.53328 6.26665C4.53328 5.79259 4.70365 5.38518 5.04438 5.04442C5.38958 4.69629 5.79811 4.52222 6.26995 4.52222C6.7418 4.52222 7.1518 4.69629 7.49995 5.04442L9.54438 7.09999C9.88512 7.44072 10.0555 7.84813 10.0555 8.32222C10.0555 8.79629 9.88512 9.20369 9.54438 9.54442C9.20365 9.88515 8.79625 10.0555 8.32218 10.0555C7.8481 10.0555 7.44068 9.88515 7.09995 9.54442ZM7.99995 25.1445H13.9555C14.4419 25.1445 14.8617 24.9684 15.2148 24.6164C15.5679 24.2643 15.7444 23.8383 15.7444 23.3386C15.7444 22.8314 15.574 22.3926 15.233 22.0222C14.8921 21.6518 14.4663 21.4666 13.9555 21.4666H12.0778L11.2778 19.6778C11.0015 19.0296 10.5656 18.5194 9.96995 18.1472C9.37433 17.775 8.71766 17.5889 7.99995 17.5889C6.94315 17.5889 6.04376 17.9482 5.30178 18.667C4.55981 19.3857 4.18882 20.2728 4.18882 21.3281C4.18882 22.3908 4.55796 23.2926 5.29625 24.0333C6.03452 24.7741 6.93575 25.1445 7.99995 25.1445ZM7.99995 28.6333C5.97773 28.6333 4.25551 27.9222 2.83328 26.5C1.41106 25.0778 0.699951 23.3555 0.699951 21.3333C0.699951 19.2667 1.45736 17.5333 2.97218 16.1333C4.48698 14.7333 6.29994 14.0481 8.41105 14.0778C9.70343 14.0778 10.8747 14.4481 11.9248 15.1889C12.9749 15.9296 13.7851 16.8741 14.3555 18.0222C15.7202 18.0222 16.8706 18.5155 17.8068 19.502C18.743 20.4885 19.2111 21.6693 19.2111 23.0444C19.2259 24.563 18.7312 25.8741 17.727 26.9778C16.7228 28.0815 15.4805 28.6333 14 28.6333H7.99995ZM19.2111 23.0444C19.0037 22.5128 18.787 21.9813 18.5611 21.45C18.3351 20.9187 18.1074 20.3798 17.8777 19.8334C18.6333 19.4926 19.2241 18.9738 19.65 18.2769C20.0759 17.5801 20.2889 16.8221 20.2889 16.0031C20.2889 14.8084 19.8722 13.7944 19.0389 12.9611C18.2055 12.1278 17.1926 11.7111 16 11.7111C14.9523 11.7111 14.0254 12.0383 13.2194 12.6927C12.4132 13.3471 11.9364 14.1903 11.7888 15.2222C11.2259 15.0222 10.6629 14.8315 10.1 14.65C9.53697 14.4685 8.97401 14.2778 8.41105 14.0778C8.79625 12.337 9.70552 10.9259 11.1389 9.84442C12.5722 8.76295 14.1926 8.22222 16 8.22222C18.1703 8.22222 20.0092 8.97592 21.5166 10.4833C23.024 11.9907 23.7777 13.8321 23.7777 16.0076C23.7777 17.5359 23.3648 18.937 22.5389 20.2111C21.7129 21.4852 20.6037 22.4296 19.2111 23.0444Z" fill="white"/>
</g>
</svg>
