<svg width="921" height="1995" viewBox="0 0 921 1995" fill="none" xmlns="http://www.w3.org/2000/svg">
<g clip-path="url(#clip0_68_49)">
<path d="M920.96 -0.00999451H0V1994.17H920.96V-0.00999451Z" fill="url(#paint0_linear_68_49)"/>
<path opacity="0.2" d="M571.51 431.37C571.51 433.26 571.09 435.05 570.35 436.65C569.86 437.71 568.79 438.38 567.62 438.38H511.82C510.51 438.38 509.28 437.7 508.61 436.57C507.02 433.92 506.11 430.83 506.11 427.52C506.11 418.93 512.26 411.78 520.4 410.23C521.27 410.06 521.96 409.4 522.15 408.53C523.99 400.06 531.53 393.72 540.55 393.72C550.88 393.72 559.36 402.18 559.38 412.51C559.38 414.49 559.08 416.4 558.52 418.2C558.42 418.51 558.66 418.83 558.99 418.83C565.92 418.83 571.53 424.45 571.53 431.37H571.51Z" fill="white"/>
<path opacity="0.2" d="M920.22 883.67C922.56 878.28 923.83 872.32 923.8 866.06C923.67 842.11 904.02 822.57 880.07 822.56C879.04 822.56 878.03 822.6 877.02 822.67C871.45 815.02 862.42 810.04 852.23 810.04C846.83 810.04 841.77 811.44 837.36 813.89C835.98 814.66 834.25 813.98 833.75 812.48C827.17 792.6 808.57 778.19 786.56 777.86C758.45 777.44 735.26 800.26 735.26 828.38C735.26 832.39 735.73 836.29 736.61 840.04C737.06 841.94 735.57 843.75 733.62 843.68C732.94 843.65 732.26 843.64 731.57 843.64C710.99 843.64 693.09 855.11 683.91 872C683.1 873.48 681.42 874.23 679.76 873.9C677.52 873.45 675.21 873.22 672.85 873.22C672.23 873.22 671.62 873.24 671.01 873.27C669.56 873.34 668.15 872.77 667.18 871.7C659.88 863.7 649.37 858.68 637.69 858.68C615.65 858.68 597.78 876.55 597.78 898.59C597.78 899.29 597.8 899.98 597.83 900.66C597.92 902.39 596.85 903.99 595.21 904.56C588.86 906.77 583.98 912.09 582.38 918.7V918.72C582.33 918.86 582.14 919.42 582.1 920.11C582.02 921.5 582.54 923.41 586.05 923.41H930.61C933.01 923.41 935.19 922.05 936.27 919.91C937.76 916.95 938.6 913.61 938.6 910.07C938.6 900.1 931.93 891.69 922.8 889.05C920.49 888.38 919.27 885.88 920.23 883.68L920.22 883.67Z" fill="url(#paint1_linear_68_49)"/>
<path opacity="0.2" d="M-99.2899 231.64C-101.65 226.19 -102.94 220.16 -102.91 213.84C-102.78 189.63 -82.9099 169.86 -58.6899 169.86C-57.6499 169.86 -56.6199 169.9 -55.6099 169.97C-49.9799 162.23 -40.8499 157.2 -30.5499 157.2C-25.0899 157.2 -19.9699 158.61 -15.5199 161.09C-14.1199 161.87 -12.3699 161.18 -11.8699 159.66C-5.20987 139.55 13.5901 124.99 35.8501 124.66C64.2801 124.23 87.7201 147.31 87.7201 175.74C87.7201 179.8 87.2501 183.74 86.3501 187.53C85.9001 189.45 87.4001 191.28 89.3801 191.21C90.0701 191.18 90.7601 191.17 91.4501 191.17C112.26 191.17 130.36 202.77 139.64 219.84C140.45 221.34 142.16 222.09 143.83 221.76C146.09 221.31 148.43 221.07 150.82 221.07C151.44 221.07 152.07 221.09 152.68 221.12C154.14 221.2 155.57 220.62 156.55 219.53C163.93 211.44 174.56 206.37 186.37 206.37C208.65 206.37 226.72 224.44 226.72 246.73C226.72 247.43 226.7 248.13 226.67 248.83C226.58 250.58 227.66 252.19 229.32 252.77C235.74 255 240.68 260.38 242.29 267.06C242.29 267.06 242.29 267.08 242.29 267.09C242.34 267.24 242.53 267.8 242.57 268.49C242.65 269.9 242.12 271.83 238.58 271.83C230.64 271.83 217.96 271.83 217.96 271.83H-109.78C-112.2 271.83 -114.41 270.45 -115.5 268.29C-117.01 265.3 -117.86 261.92 -117.86 258.34C-117.86 248.26 -111.11 239.75 -101.89 237.09C-99.5599 236.42 -98.3299 233.89 -99.2899 231.66V231.64Z" fill="url(#paint2_linear_68_49)"/>
<path opacity="0.8" d="M915.85 405.63C915.85 415.12 913.43 424.04 909.17 431.81C907.2 435.39 903.44 437.63 899.35 437.63H587.89C585.2 437.63 582.72 436.24 581.29 433.96C581.21 433.83 581.13 433.7 581.05 433.57C575.94 425.26 573.04 415.45 573.18 404.94C573.56 374.96 598.29 351.29 628.27 352.19C634.08 352.37 639.65 353.47 644.85 355.35C646.95 356.11 649.15 355 649.72 352.84C652.86 340.85 661.09 330.91 671.98 325.49C674.1 324.43 675.58 322.41 675.86 320.06C679.25 291.18 703.8 268.78 733.58 268.78C748.81 268.78 762.67 274.64 773.04 284.23C775.12 286.16 778.13 286.68 780.76 285.6C788.79 282.31 797.58 280.5 806.79 280.5C844.7 280.5 875.44 311.24 875.44 349.15C875.44 350.24 875.78 351.28 876.39 352.14C876.99 352.99 877.86 353.66 878.89 354.02C900.39 361.33 915.86 381.69 915.86 405.66L915.85 405.63Z" fill="url(#paint3_linear_68_49)"/>
<path opacity="0.6" d="M16.5803 744.62C16.5803 749.2 17.7503 753.5 19.8003 757.24C20.7503 758.97 22.5603 760.05 24.5303 760.05H174.7C176 760.05 177.19 759.38 177.88 758.28C180.41 754.23 181.86 749.43 181.79 744.29C181.61 729.83 169.68 718.43 155.23 718.86C152.43 718.94 149.74 719.47 147.23 720.38C146.22 720.75 145.16 720.21 144.88 719.17C143.37 713.38 139.39 708.59 134.15 705.98C133.13 705.47 132.41 704.49 132.28 703.36C130.65 689.44 118.81 678.64 104.45 678.64C97.1103 678.64 90.4203 681.46 85.4303 686.09C84.4203 687.02 82.9703 687.27 81.7103 686.75C77.8403 685.16 73.6003 684.29 69.1603 684.29C50.8803 684.29 36.0603 699.11 36.0603 717.39C36.0603 718.45 35.4003 719.39 34.4003 719.73C24.0303 723.25 16.5703 733.07 16.5703 744.63L16.5803 744.62Z" fill="url(#paint4_linear_68_49)"/>
<path opacity="0.6" d="M196.06 755.48C196.06 756.71 196.33 757.87 196.82 758.92C197.14 759.61 197.83 760.05 198.59 760.05H234.87C235.72 760.05 236.52 759.61 236.96 758.87C237.99 757.15 238.59 755.14 238.59 752.98C238.59 747.39 234.59 742.74 229.3 741.74C228.73 741.63 228.29 741.2 228.17 740.64C226.97 735.13 222.07 731.01 216.21 731.01C209.49 731.01 203.98 736.51 203.97 743.23C203.97 744.52 204.16 745.76 204.53 746.93C204.59 747.13 204.44 747.34 204.23 747.34C199.73 747.34 196.07 750.99 196.07 755.5L196.06 755.48Z" fill="url(#paint5_linear_68_49)"/>
<g style="mix-blend-mode:lighten" opacity="0.05">
<path d="M96.45 908.02C101.94 929.28 109.44 949.42 118.69 968.27C117.68 947.3 114.5 926.04 109.01 904.78C103.52 883.52 96.01 863.38 86.75 844.54C87.78 865.5 90.96 886.76 96.45 908.02Z" fill="#FFFF74"/>
</g>
<g style="mix-blend-mode:lighten" opacity="0.05">
<path d="M130.14 1026.66C132.51 1035.85 135.76 1044.57 139.76 1052.71C139.32 1043.64 137.95 1034.45 135.57 1025.26C133.2 1016.07 129.95 1007.35 125.95 999.21C126.4 1008.27 127.77 1017.47 130.15 1026.66H130.14Z" fill="#FFFF74"/>
</g>
<path opacity="0.04" d="M350.93 1722.03L-30.0997 1424.35L-47.1597 1371.66L363.18 1718.06L350.93 1722.03Z" fill="#FFEAA3"/>
<path opacity="0.08" d="M354.43 1721.65L-13.4397 1152.07L-75.7197 861.78L382.14 1715.71L354.43 1721.65Z" fill="#FFEAA3"/>
<path opacity="0.03" d="M746.64 1680.82L1046.18 1072.52L988.87 762.92L632.81 1664.05L746.64 1680.82Z" fill="#FFEAA3"/>
<path opacity="0.15" d="M394.24 1671.75L101.35 308.26L361.47 258.69L449.86 1661.15L394.24 1671.75Z" fill="url(#paint6_linear_68_49)"/>
<path opacity="0.1" d="M451.72 1665.65L330.53 127.93L649.03 94.13L540.93 1656.18L451.72 1665.65Z" fill="url(#paint7_linear_68_49)"/>
<path opacity="0.2" d="M676.71 1493.05C674.75 1498.51 672.14 1503.58 668.98 1508.21C669.49 1502.62 670.7 1497.05 672.66 1491.59C674.62 1486.13 677.23 1481.06 680.4 1476.43C679.89 1482.02 678.67 1487.59 676.71 1493.05Z" fill="#FFFF74"/>
<path opacity="0.2" d="M713.27 1402.63C705.84 1423.29 696.51 1442.66 685.57 1460.57C688.51 1439.79 693.64 1418.91 701.07 1398.25C708.5 1377.59 717.83 1358.22 728.79 1340.32C725.83 1361.1 720.7 1381.97 713.27 1402.64V1402.63Z" fill="#FFFF74"/>
<path opacity="0.1" d="M845.17 1065.81C826.12 1118.83 804.96 1169.52 782.2 1217.38C795.08 1165.97 811.04 1113.41 830.1 1060.39C849.15 1007.37 870.31 956.68 893.1 908.83C880.19 960.23 864.23 1012.79 845.18 1065.81H845.17Z" fill="#FFFFA6"/>
<path opacity="0.2" d="M115.94 1457.93C127.97 1472.38 141.4 1485.02 155.92 1495.83C147.93 1479.58 137.93 1464.08 125.9 1449.63C113.87 1435.18 100.44 1422.54 85.9004 1411.74C93.9104 1427.98 103.91 1443.48 115.94 1457.93Z" fill="#FFFF74"/>
<path opacity="0.4" d="M495.308 1808.16C603.929 1796.62 685.28 1724.14 677.011 1646.25C668.742 1568.36 573.985 1514.57 465.364 1526.1C356.744 1537.63 275.393 1610.12 283.661 1688.01C291.93 1765.9 386.688 1819.69 495.308 1808.16Z" fill="url(#paint8_radial_68_49)"/>
<path opacity="0.3" d="M487.822 1737.64C542.132 1731.88 582.808 1695.63 578.673 1656.69C574.539 1617.75 527.16 1590.85 472.85 1596.61C418.54 1602.38 377.864 1638.62 381.999 1677.57C386.133 1716.51 433.512 1743.41 487.822 1737.64Z" fill="url(#paint9_radial_68_49)"/>
<path opacity="0.3" d="M212.03 1631.08C212.03 1631.08 508.93 1531.09 566.18 1531.86C623.43 1532.63 702.8 1570.02 735.62 1576.13C768.44 1582.24 212.03 1631.08 212.03 1631.08Z" fill="#A15555"/>
<path opacity="0.4" d="M344.84 1670.85C344.84 1670.85 42.5902 1531.94 -105.48 1528.89C-253.55 1525.84 -126.85 2000.58 -126.85 2000.58L294.46 2017.37L344.83 1670.85H344.84Z" fill="url(#paint10_linear_68_49)"/>
<path opacity="0.5" d="M499.052 1843.42C634.824 1829 736.511 1738.39 726.175 1641.03C715.838 1543.67 597.394 1476.43 461.621 1490.84C325.848 1505.25 224.161 1595.87 234.498 1693.23C244.834 1790.59 363.279 1857.83 499.052 1843.42Z" fill="url(#paint11_radial_68_49)"/>
<path d="M964.39 1845.38L943.35 1647.41L946.02 1479.28L887 1500.65V1512.9C843.93 1520.57 776.93 1533.89 734.48 1549.12C734.48 1549.12 671.89 1528.51 584.5 1552.17C584.5 1552.17 455.3 1522.22 447.72 1520.55C440.24 1518.89 433.08 1517.37 426.53 1516.07L426.51 1504.98L377.66 1487.68L267.75 1531.69V1565.21C244 1566.01 222.54 1570.26 213.85 1572.2C211.43 1572.74 209.7 1574.85 209.63 1577.32L208.73 1831.39L267.75 1826.88V1834.95L427.02 1842.84L427 1826.53L887.01 1842.67V1853.53L939.93 1863.71L940.23 1844.54L964.4 1845.39L964.39 1845.38Z" fill="#FFBB78"/>
<path d="M568.85 1546.19V1720.46L407.04 1719.02L415.44 1506.5L568.85 1546.19Z" fill="#FFDAB5"/>
<path d="M743.93 1542.37L894.65 1503.7L896.67 1714.87L747.8 1719.45L743.93 1542.37Z" fill="#FFDAB5"/>
<path d="M618.84 1628.53H602.9V1783.72H618.84V1628.53Z" fill="#FFD78F"/>
<path d="M716.03 1627.77H700.09V1782.96H716.03V1627.77Z" fill="#FFD78F"/>
<path d="M416.96 1872.35H388.34V1510.06L416.96 1519.22V1872.35Z" fill="#FFDAB5"/>
<path d="M585.09 1546.7V1633.88C585.09 1633.88 686.77 1622.18 735.11 1631.51V1543.99C735.11 1543.99 666.67 1523.64 585.09 1546.7Z" fill="#FFECD3"/>
<path opacity="0.5" d="M208.98 1655.77V1868.46H926.69V1604.63C926.69 1604.63 565.93 1606.16 208.98 1655.77Z" fill="url(#paint12_linear_68_49)"/>
<path d="M-53.33 1837.75C-53.33 1837.75 756.73 1750.23 984.69 1744.12L998.94 2206.14L-118.46 2189.86L-53.33 1837.75Z" fill="url(#paint13_linear_68_49)"/>
</g>
<defs>
<linearGradient id="paint0_linear_68_49" x1="460.48" y1="-193.53" x2="460.48" y2="2156.14" gradientUnits="userSpaceOnUse">
<stop stop-color="#DF254E"/>
<stop offset="0.11" stop-color="#E0274D"/>
<stop offset="0.22" stop-color="#E33446"/>
<stop offset="0.42" stop-color="#ED5636"/>
<stop offset="0.69" stop-color="#FE8E1D"/>
<stop offset="0.7" stop-color="#FF911C"/>
<stop offset="0.77" stop-color="#FE921F"/>
<stop offset="0.82" stop-color="#FD9829"/>
<stop offset="0.87" stop-color="#FBA139"/>
<stop offset="0.91" stop-color="#F8AF51"/>
<stop offset="0.95" stop-color="#F4C070"/>
<stop offset="0.99" stop-color="#EFD595"/>
<stop offset="1" stop-color="#EFDA9D"/>
</linearGradient>
<linearGradient id="paint1_linear_68_49" x1="821.55" y1="735.53" x2="694.16" y2="1112.08" gradientUnits="userSpaceOnUse">
<stop offset="0.06" stop-color="#FFA6B2" stop-opacity="0.5"/>
<stop offset="0.47" stop-color="#FFBFCF" stop-opacity="0.8"/>
<stop offset="0.62" stop-color="#FFC4C8" stop-opacity="0.86"/>
<stop offset="0.86" stop-color="#FFCFBA"/>
</linearGradient>
<linearGradient id="paint2_linear_68_49" x1="16.4201" y1="8.02005" x2="90.2901" y2="420.01" gradientUnits="userSpaceOnUse">
<stop offset="0.06" stop-color="#FFA6B2" stop-opacity="0.5"/>
<stop offset="0.47" stop-color="#FFBFCF" stop-opacity="0.8"/>
<stop offset="0.62" stop-color="#FFC4C8" stop-opacity="0.86"/>
<stop offset="0.86" stop-color="#FFCFBA"/>
</linearGradient>
<linearGradient id="paint3_linear_68_49" x1="787.72" y1="251.97" x2="724.99" y2="475.14" gradientUnits="userSpaceOnUse">
<stop offset="0.06" stop-color="#FFA6B2" stop-opacity="0.5"/>
<stop offset="0.47" stop-color="#FFBFCF" stop-opacity="0.8"/>
<stop offset="0.62" stop-color="#FFC4C8" stop-opacity="0.86"/>
<stop offset="0.86" stop-color="#FFCFBA"/>
</linearGradient>
<linearGradient id="paint4_linear_68_49" x1="101.23" y1="659.76" x2="97.9203" y2="797.45" gradientUnits="userSpaceOnUse">
<stop offset="0.05" stop-color="#FFDBF4" stop-opacity="0.6"/>
<stop offset="0.4" stop-color="#FFDBE4" stop-opacity="0.8"/>
<stop offset="0.54" stop-color="#FFDEE1" stop-opacity="0.86"/>
<stop offset="0.77" stop-color="#FFE6DB"/>
<stop offset="1" stop-color="#FFF7DB"/>
</linearGradient>
<linearGradient id="paint5_linear_68_49" x1="216.99" y1="711.83" x2="217.65" y2="796.56" gradientUnits="userSpaceOnUse">
<stop offset="0.05" stop-color="#FFDBF4" stop-opacity="0.6"/>
<stop offset="0.4" stop-color="#FFDBE4" stop-opacity="0.8"/>
<stop offset="0.54" stop-color="#FFDEE1" stop-opacity="0.86"/>
<stop offset="0.77" stop-color="#FFE6DB"/>
<stop offset="1" stop-color="#FFF7DB"/>
</linearGradient>
<linearGradient id="paint6_linear_68_49" x1="482.974" y1="1919.05" x2="211.679" y2="307.203" gradientUnits="userSpaceOnUse">
<stop stop-color="#FFEAA3"/>
<stop offset="0.02" stop-color="#FFEAA3" stop-opacity="0.96"/>
<stop offset="0.14" stop-color="#FFEAA3" stop-opacity="0.74"/>
<stop offset="0.25" stop-color="#FFEAA3" stop-opacity="0.54"/>
<stop offset="0.37" stop-color="#FFEAA3" stop-opacity="0.37"/>
<stop offset="0.49" stop-color="#FFEAA3" stop-opacity="0.24"/>
<stop offset="0.61" stop-color="#FFEAA3" stop-opacity="0.13"/>
<stop offset="0.74" stop-color="#FFEAA3" stop-opacity="0.06"/>
<stop offset="0.87" stop-color="#FFEAA3" stop-opacity="0.01"/>
<stop offset="1" stop-color="#FFEAA3" stop-opacity="0"/>
</linearGradient>
<linearGradient id="paint7_linear_68_49" x1="633.342" y1="1939" x2="491.427" y2="132.022" gradientUnits="userSpaceOnUse">
<stop stop-color="#FFEAA3"/>
<stop offset="0.12" stop-color="#FFEAA3" stop-opacity="0.78"/>
<stop offset="0.24" stop-color="#FFEAA3" stop-opacity="0.58"/>
<stop offset="0.37" stop-color="#FFEAA3" stop-opacity="0.4"/>
<stop offset="0.5" stop-color="#FFEAA3" stop-opacity="0.26"/>
<stop offset="0.63" stop-color="#FFEAA3" stop-opacity="0.14"/>
<stop offset="0.75" stop-color="#FFEAA3" stop-opacity="0.06"/>
<stop offset="0.88" stop-color="#FFEAA3" stop-opacity="0.02"/>
<stop offset="1" stop-color="#FFEAA3" stop-opacity="0"/>
</linearGradient>
<radialGradient id="paint8_radial_68_49" cx="0" cy="0" r="1" gradientUnits="userSpaceOnUse" gradientTransform="translate(479.824 1668.41) rotate(-6.06) scale(198.044 140.431)">
<stop stop-color="#FFDB53"/>
<stop offset="0.1" stop-color="#FFDB53" stop-opacity="0.93"/>
<stop offset="0.3" stop-color="#FFDB53" stop-opacity="0.75"/>
<stop offset="0.59" stop-color="#FFDB53" stop-opacity="0.47"/>
<stop offset="0.94" stop-color="#FFDB53" stop-opacity="0.07"/>
<stop offset="1" stop-color="#FFDB53" stop-opacity="0"/>
</radialGradient>
<radialGradient id="paint9_radial_68_49" cx="0" cy="0" r="1" gradientUnits="userSpaceOnUse" gradientTransform="translate(405.592 969.189) rotate(-6.06) scale(99.022 70.2156)">
<stop stop-color="#FFDB53"/>
<stop offset="0.1" stop-color="#FFDB53" stop-opacity="0.93"/>
<stop offset="0.3" stop-color="#FFDB53" stop-opacity="0.75"/>
<stop offset="0.59" stop-color="#FFDB53" stop-opacity="0.47"/>
<stop offset="0.94" stop-color="#FFDB53" stop-opacity="0.07"/>
<stop offset="1" stop-color="#FFDB53" stop-opacity="0"/>
</radialGradient>
<linearGradient id="paint10_linear_68_49" x1="83.7502" y1="1565.52" x2="83.7502" y2="1930.36" gradientUnits="userSpaceOnUse">
<stop stop-color="#A15555"/>
<stop offset="0.18" stop-color="#A15555" stop-opacity="0.98"/>
<stop offset="0.34" stop-color="#A15555" stop-opacity="0.91"/>
<stop offset="0.49" stop-color="#A15555" stop-opacity="0.8"/>
<stop offset="0.63" stop-color="#A15555" stop-opacity="0.64"/>
<stop offset="0.77" stop-color="#A15555" stop-opacity="0.44"/>
<stop offset="0.91" stop-color="#A15555" stop-opacity="0.2"/>
<stop offset="1" stop-color="#A15555" stop-opacity="0"/>
</linearGradient>
<radialGradient id="paint11_radial_68_49" cx="0" cy="0" r="1" gradientUnits="userSpaceOnUse" gradientTransform="translate(405.592 969.189) rotate(-6.06) scale(247.544 175.531)">
<stop stop-color="#FFDB53"/>
<stop offset="0.1" stop-color="#FFDB53" stop-opacity="0.93"/>
<stop offset="0.3" stop-color="#FFDB53" stop-opacity="0.75"/>
<stop offset="0.59" stop-color="#FFDB53" stop-opacity="0.47"/>
<stop offset="0.94" stop-color="#FFDB53" stop-opacity="0.07"/>
<stop offset="1" stop-color="#FFDB53" stop-opacity="0"/>
</radialGradient>
<linearGradient id="paint12_linear_68_49" x1="567.83" y1="1619.39" x2="567.83" y2="2022.9" gradientUnits="userSpaceOnUse">
<stop stop-color="#FF812B" stop-opacity="0"/>
<stop offset="0.09" stop-color="#FF812B" stop-opacity="0.05"/>
<stop offset="0.24" stop-color="#FF812B" stop-opacity="0.17"/>
<stop offset="0.45" stop-color="#FF812B" stop-opacity="0.37"/>
<stop offset="0.71" stop-color="#FF812B" stop-opacity="0.64"/>
<stop offset="0.99" stop-color="#FF812B" stop-opacity="0.99"/>
<stop offset="1" stop-color="#FF812B"/>
</linearGradient>
<linearGradient id="paint13_linear_68_49" x1="440.24" y1="1762.44" x2="440.24" y2="2269.73" gradientUnits="userSpaceOnUse">
<stop stop-color="#F8CA85"/>
<stop offset="0.4" stop-color="#F2B370"/>
<stop offset="1" stop-color="#EB9555"/>
</linearGradient>
<clipPath id="clip0_68_49">
<rect width="920.96" height="1994.18" fill="white"/>
</clipPath>
</defs>
</svg>
