<svg width="921" height="1995" viewBox="0 0 921 1995" fill="none" xmlns="http://www.w3.org/2000/svg">
<g clip-path="url(#clip0_68_86)">
<path d="M920.72 -0.309998H-0.350098V1994.47H920.72V-0.309998Z" fill="url(#paint0_linear_68_86)"/>
<path opacity="0.15" d="M920.72 -0.309998H-0.350098V1994.47H920.72V-0.309998Z" fill="#4B0094"/>
<path opacity="0.4" d="M495.029 1808.16C603.649 1796.62 685 1724.14 676.732 1646.25C668.463 1568.36 573.705 1514.57 465.085 1526.1C356.464 1537.63 275.113 1610.12 283.382 1688.01C291.651 1765.9 386.408 1819.69 495.029 1808.16Z" fill="url(#paint1_radial_68_86)"/>
<path opacity="0.3" d="M487.544 1737.64C541.854 1731.88 582.529 1695.63 578.395 1656.69C574.261 1617.74 526.882 1590.85 472.572 1596.61C418.262 1602.38 377.586 1638.62 381.72 1677.57C385.855 1716.51 433.233 1743.41 487.544 1737.64Z" fill="url(#paint2_radial_68_86)"/>
<path opacity="0.3" d="M211.75 1631.08C211.75 1631.08 508.65 1531.09 565.9 1531.86C623.15 1532.63 702.52 1570.02 735.34 1576.13C768.16 1582.24 211.75 1631.08 211.75 1631.08Z" fill="#A15C92"/>
<path opacity="0.8" d="M344.56 1670.85C344.56 1670.85 42.3099 1531.94 -105.76 1528.89C-253.83 1525.84 -127.13 2000.58 -127.13 2000.58L294.18 2017.37L344.55 1670.85H344.56Z" fill="url(#paint3_linear_68_86)"/>
<path opacity="0.5" d="M498.772 1843.42C634.545 1829 736.232 1738.39 725.895 1641.03C715.559 1543.67 597.114 1476.42 461.341 1490.84C325.569 1505.25 223.882 1595.87 234.218 1693.23C244.555 1790.59 362.999 1857.83 498.772 1843.42Z" fill="url(#paint4_radial_68_86)"/>
<path d="M964.11 1845.38L943.07 1647.41L945.74 1479.28L886.72 1500.65V1512.9C843.65 1520.57 776.65 1533.89 734.2 1549.12C734.2 1549.12 671.61 1528.51 584.22 1552.17C584.22 1552.17 455.02 1522.22 447.44 1520.55C439.96 1518.89 432.8 1517.37 426.25 1516.07L426.23 1504.98L377.38 1487.68L267.47 1531.69V1565.21C243.72 1566.01 222.26 1570.26 213.57 1572.2C211.15 1572.74 209.42 1574.85 209.35 1577.32L208.45 1831.39L267.47 1826.88V1834.95L426.74 1842.84L426.72 1826.53L886.73 1842.67V1853.53L939.65 1863.71L939.95 1844.54L964.12 1845.39L964.11 1845.38Z" fill="#CC9B92"/>
<path d="M570.31 1547.93V1722.2L408.5 1720.76L416.9 1508.24L570.31 1547.93Z" fill="#CCB4B7"/>
<path d="M743.65 1542.37L894.37 1503.7L896.39 1714.87L747.52 1719.45L743.65 1542.37Z" fill="#CCB4B7"/>
<path d="M618.56 1628.53H602.62V1783.72H618.56V1628.53Z" fill="#CCB2A4"/>
<path d="M715.75 1627.77H699.81V1782.96H715.75V1627.77Z" fill="#CCB2A4"/>
<path d="M418.42 1874.09H389.8V1511.8L418.42 1520.96V1874.09Z" fill="#CCB4B7"/>
<path d="M584.81 1546.7V1633.88C584.81 1633.88 686.49 1622.18 734.83 1631.51V1543.99C734.83 1543.99 666.39 1523.64 584.81 1546.7Z" fill="#CCB4B7"/>
<path opacity="0.5" d="M208.7 1655.77V1868.46H926.41V1604.63C926.41 1604.63 565.65 1606.16 208.7 1655.77Z" fill="url(#paint5_linear_68_86)"/>
<path d="M-53.6102 1837.75C-53.6102 1837.75 756.45 1750.23 984.41 1744.12L998.66 2206.14L-118.74 2189.86L-53.6102 1837.75Z" fill="url(#paint6_linear_68_86)"/>
<g opacity="0.35">
<path d="M-48.3999 1161.15C37.2901 1177.45 124.42 1186.73 211.71 1186.54C249.16 1186.54 286.61 1185.27 323.94 1182.14C373.76 1178.4 423.1 1169.58 473.05 1167.46C488.88 1167.13 531.27 1165.19 541.63 1177.25C543.76 1179.83 543.9 1183.77 542.13 1186.59C539.47 1190.72 534.56 1192.56 530.2 1194.16C520.04 1198.27 491.79 1200.93 490.63 1213.72C490.11 1216.72 491.85 1219.44 494.09 1221.44C517.67 1240.61 606.66 1246.68 639.65 1249.05C720.66 1253.38 801.88 1255.16 882.99 1253.2C926.52 1251.97 970.45 1249.52 1013.7 1244.44H1013.75L1013.01 1245.28C1012.99 1245.57 1012.77 -128.49 1013.85 -125.77C1013.84 -125.77 -85.6399 -125.77 -85.6599 -125.77C-84.2399 -128.7 -48.8899 1161.67 -48.3899 1161.16L-48.3999 1161.15ZM-49.3499 1161.95C-49.7099 1161.53 -85.9199 -126.38 -86.1899 -126.77C-85.1899 -126.24 1014.4 -127.8 1014.33 -126.24C1014.54 -125.93 1014.52 1245.66 1014.67 1246.03L1013.93 1246.11H1013.88C970.56 1251.16 926.62 1253.57 883.02 1254.75C801.85 1256.63 720.61 1254.75 639.56 1250.34C606.6 1247.93 516.97 1241.75 493.32 1222.27C489.2 1218.84 488.19 1213.53 491.14 1208.99C497.76 1199.26 518.94 1197.28 529.84 1193.18C534.06 1191.66 538.72 1189.93 541.26 1186.07C542.82 1183.58 542.73 1180.15 540.85 1177.85C530.6 1166.18 488.74 1167.96 473.08 1168.28C448.12 1169.14 423.31 1172.12 398.52 1175.09C348.95 1181.28 299.14 1186.01 249.18 1187.07C155.49 1189.71 61.6501 1182.29 -30.5799 1165.64L-39.7999 1163.95L-44.3999 1163.07L-46.6999 1162.62L-47.8499 1162.39C-48.3599 1162.29 -48.8899 1162.13 -49.3499 1161.95Z" fill="white"/>
</g>
<path opacity="0.5" d="M-48.8699 1161.55C-48.8699 1161.55 50.4301 1182.14 157.56 1186C313.26 1191.61 388.37 1173.34 455.76 1168.79C486.78 1166.7 541.47 1165.34 542.82 1181.46C544.37 1199.92 489.73 1194.34 489.99 1215.02C490.25 1235.7 583.67 1247.56 665.74 1251.1C762.04 1255.25 901.68 1258.63 1013.84 1245.28V-126.28H-85.6699L-48.8699 1161.55Z" fill="url(#paint7_linear_68_86)"/>
<g opacity="0.35">
<path d="M-72.2299 1015.89C-71.4299 1015.71 -69.6199 1015.87 -68.7699 1015.92L-64.8399 1016.16C-9.7599 1019.22 45.4701 1020.14 100.62 1018.71C136.97 1017.6 174.57 1015.54 210.64 1010.99C252.07 1005.49 294.42 999.64 333.28 983.6C352.53 975.42 371.73 966.27 391.6 959.57C461.31 935.47 534.86 925.75 607.43 914.3C711.34 898.55 815.83 886.16 919.04 866.12C947.2 860.28 975.68 854.42 1002.61 844.26C1014.18 838.11 1020.45 825.56 1025.39 813.9C1040.31 774.59 1044.07 732.06 1047.73 690.46C1060.51 480.52 1042.65 270.01 1025.56 60.79C1022.48 19.63 1016.57 -25.42 1013.84 -64.33C1013.84 -64.33 -126.37 -39.9 -126.37 -39.91C-125.05 -42.93 -72.6999 1016.43 -72.2299 1015.87V1015.89ZM-73.2599 1016.9C-73.4599 1016.46 -126.75 -40.47 -126.9 -40.88C-125.82 -40.29 1014.13 -66.33 1014.34 -64.86C1032.12 102.41 1045.65 270.2 1051.71 438.33C1054.38 522.39 1055.63 606.66 1049.54 690.61C1045.89 732.4 1042.13 775.09 1027.14 814.62C1022.1 826.67 1015.5 839.62 1003.46 845.98C976.34 856.24 947.71 862.06 919.4 867.92C816.14 887.89 711.57 899.9 607.6 915.45C535.07 926.76 461.49 936.16 391.85 960.28C371.98 966.99 352.85 976.12 333.58 984.33C294.67 1000.45 252.26 1006.44 210.77 1012.01C169.37 1017.22 126.59 1019.42 84.8901 1020.26C34.9501 1021.24 -15.0399 1020.28 -64.9099 1017.59L-68.8499 1017.36L-70.8199 1017.24C-71.6099 1017.2 -72.4999 1017.06 -73.2599 1016.9Z" fill="white"/>
</g>
<path opacity="0.5" d="M-72.7401 1016.4C-72.7401 1016.4 95.2199 1027.91 223.07 1009.97C350.11 992.15 326.91 976.95 428.14 948.53C559.54 911.64 890.53 885.94 1000.44 846.26C1110.35 806.58 1013.84 -64.81 1013.84 -64.81L-126.37 -40.38L-72.7401 1016.4Z" fill="url(#paint8_linear_68_86)"/>
<g opacity="0.35">
<path d="M-85.2799 376.72C128.94 421.49 345.62 454.79 563.34 477.05C616.59 482.27 673.62 487.28 726.98 490.78C804.87 496.06 885.88 499.4 963.96 500.04C993.64 500.26 1025.48 500.07 1055.18 499.4L1064.3 499.23L1068.86 499.14L1071.14 499.1C1071.9 499.1 1072.66 498.91 1073.44 499.67C1073 502.84 1052.32 -286.15 1052.52 -285.46C1056.37 -285.2 -88.8799 -265.7 -85.1699 -267.15L-85.2799 376.72ZM-86.0599 377.35L-86.1699 -267.15V-267.64H-85.6799C-85.2599 -267.24 1054.08 -286.86 1053.51 -285.47C1053.24 -285.3 1074.79 501.45 1073.46 500.68C1072.72 501.47 1071.95 501.3 1071.19 501.34L1068.91 501.38C1066.3 501.41 1058.01 501.59 1055.22 501.63C1031.99 502.18 1005.45 502.33 982.2 502.29C879.48 502.03 774.62 496.86 672.23 488.76C466.06 472.14 260.78 443.69 57.4101 406.16C9.56008 397.17 -38.5599 388.07 -86.0599 377.36V377.35Z" fill="white"/>
</g>
<path opacity="0.5" d="M-85.6699 377.04C-85.6699 377.04 531.97 514.89 1073.45 500.18L1053.01 -285.46L-85.6699 -267.15V377.04Z" fill="url(#paint9_linear_68_86)"/>
<g opacity="0.35">
<path d="M-45.6298 123.04C-44.0498 122.66 -42.9898 122.43 -41.9098 122.45L-38.2198 122.52C-30.4598 122.68 -22.6298 122.82 -14.9798 122.86C118.65 123.89 254.24 116.76 387.49 105.85C408.85 103.79 459.38 99.41 480.07 97.08C508.48 93.87 544.24 90.39 572.48 86.69C607.63 82.37 660.68 75.56 695.38 70.22C712.4 67.72 739.75 63.99 756.69 61.04C813.66 52.15 883.2 39.56 939.87 28.81L939.47 29.3V-57.16L939.97 -56.66L-45.9998 -64.29C-45.4098 -67.54 -45.4998 123.82 -45.6398 123.06L-45.6298 123.04ZM-46.3498 123.74C-46.3398 123.23 -46.4998 -64.84 -46.4898 -65.3C-45.9498 -65.42 939.83 -57.58 940.48 -57.66V-57.16C940.48 -56.74 940.48 29.34 940.48 29.72L940.08 29.8C883.22 40.7 814.08 53.41 756.93 62.44C739.87 65.43 713.06 69.19 695.62 71.76C677.04 74.4 652.45 78.25 634.22 80.52C622.05 82.11 568.01 88.91 557.32 90.3C535.13 92.92 502.61 96.3 480.26 98.81C459.89 101.13 408.79 105.61 387.65 107.66C264.72 117.85 139.28 124.74 16.0202 125.07C-1.46978 125.13 -20.7698 125.03 -38.2598 124.66C-40.7598 124.59 -44.1998 124.74 -46.3398 123.76L-46.3498 123.74Z" fill="white"/>
</g>
<path opacity="0.5" d="M-45.98 123.39C-45.98 123.39 389.59 138.1 939.99 29.29V-57.18L-45.98 -64.81V123.39Z" fill="url(#paint10_linear_68_86)"/>
<path d="M210.19 673.87C202.07 685.8 188.37 693.65 172.85 693.65C147.93 693.65 127.73 673.44 127.73 648.53C127.73 633.02 135.56 619.34 147.47 611.21C142.56 618.44 139.69 627.17 139.69 636.56C139.69 661.49 159.9 681.68 184.81 681.68C194.22 681.68 202.96 678.8 210.19 673.87Z" fill="white"/>
<path opacity="0.5" d="M318.25 449.12L559.69 300.54" stroke="white" stroke-width="1.5" stroke-miterlimit="10" stroke-linecap="round"/>
<path opacity="0.5" d="M725.19 767.74L870.99 678.02" stroke="white" stroke-width="0.7" stroke-miterlimit="10" stroke-linecap="round"/>
<path opacity="0.5" d="M689.91 789.45L710.63 776.7" stroke="white" stroke-width="0.7" stroke-miterlimit="10" stroke-linecap="round"/>
<path opacity="0.5" d="M82.1396 888.66L202.86 814.37" stroke="white" stroke-width="1.5" stroke-miterlimit="10" stroke-linecap="round"/>
<path opacity="0.7" d="M729.52 291.59L874.38 202.44" stroke="white" stroke-miterlimit="10" stroke-linecap="round"/>
<path opacity="0.3" d="M172.43 110.83L174.17 109.75" stroke="white" stroke-miterlimit="10" stroke-linecap="round"/>
<path opacity="0.3" d="M166.14 114.69L169.42 112.68" stroke="white" stroke-miterlimit="10" stroke-linecap="round"/>
<path opacity="0.3" d="M110.86 148.71L154.8 121.67L160.81 117.97" stroke="white" stroke-miterlimit="10" stroke-linecap="round"/>
<path opacity="0.5" d="M445.71 390.82L638.46 272.21" stroke="white" stroke-miterlimit="10" stroke-linecap="round"/>
</g>
<defs>
<linearGradient id="paint0_linear_68_86" x1="459.466" y1="-370.17" x2="460.802" y2="2182.11" gradientUnits="userSpaceOnUse">
<stop stop-color="#152260"/>
<stop offset="0.09" stop-color="#192965"/>
<stop offset="0.23" stop-color="#263E72"/>
<stop offset="0.4" stop-color="#3A6189"/>
<stop offset="0.48" stop-color="#467596"/>
<stop offset="0.53" stop-color="#4B7694"/>
<stop offset="0.58" stop-color="#5A7B90"/>
<stop offset="0.65" stop-color="#74828A"/>
<stop offset="0.72" stop-color="#988D81"/>
<stop offset="0.79" stop-color="#C59A76"/>
<stop offset="0.82" stop-color="#DBA171"/>
<stop offset="0.92" stop-color="#DF8B6B"/>
</linearGradient>
<radialGradient id="paint1_radial_68_86" cx="0" cy="0" r="1" gradientUnits="userSpaceOnUse" gradientTransform="translate(480.149 1668.84) rotate(-6.06) scale(198.044 140.431)">
<stop stop-color="#FFB65D"/>
<stop offset="0.1" stop-color="#FFB65D" stop-opacity="0.93"/>
<stop offset="0.3" stop-color="#FFB65D" stop-opacity="0.75"/>
<stop offset="0.59" stop-color="#FFB65D" stop-opacity="0.47"/>
<stop offset="0.94" stop-color="#FFB65D" stop-opacity="0.07"/>
<stop offset="1" stop-color="#FFB65D" stop-opacity="0"/>
</radialGradient>
<radialGradient id="paint2_radial_68_86" cx="0" cy="0" r="1" gradientUnits="userSpaceOnUse" gradientTransform="translate(283.849 704.522) rotate(-6.06) scale(99.022 70.2156)">
<stop stop-color="#FFB65D"/>
<stop offset="0.1" stop-color="#FFB65D" stop-opacity="0.93"/>
<stop offset="0.3" stop-color="#FFB65D" stop-opacity="0.75"/>
<stop offset="0.59" stop-color="#FFB65D" stop-opacity="0.47"/>
<stop offset="0.94" stop-color="#FFB65D" stop-opacity="0.07"/>
<stop offset="1" stop-color="#FFB65D" stop-opacity="0"/>
</radialGradient>
<linearGradient id="paint3_linear_68_86" x1="83.4699" y1="1565.52" x2="83.4699" y2="1930.36" gradientUnits="userSpaceOnUse">
<stop stop-color="#645166"/>
<stop offset="0.22" stop-color="#624F64" stop-opacity="0.97"/>
<stop offset="0.42" stop-color="#5D4B5E" stop-opacity="0.86"/>
<stop offset="0.6" stop-color="#544455" stop-opacity="0.69"/>
<stop offset="0.77" stop-color="#483A48" stop-opacity="0.44"/>
<stop offset="0.94" stop-color="#392D37" stop-opacity="0.12"/>
<stop offset="1" stop-color="#332931" stop-opacity="0"/>
</linearGradient>
<radialGradient id="paint4_radial_68_86" cx="0" cy="0" r="1" gradientUnits="userSpaceOnUse" gradientTransform="translate(283.848 704.523) rotate(-6.06) scale(247.544 175.531)">
<stop stop-color="#FFB65D"/>
<stop offset="0.1" stop-color="#FFB65D" stop-opacity="0.93"/>
<stop offset="0.3" stop-color="#FFB65D" stop-opacity="0.75"/>
<stop offset="0.59" stop-color="#FFB65D" stop-opacity="0.47"/>
<stop offset="0.94" stop-color="#FFB65D" stop-opacity="0.07"/>
<stop offset="1" stop-color="#FFB65D" stop-opacity="0"/>
</radialGradient>
<linearGradient id="paint5_linear_68_86" x1="567.55" y1="1619.39" x2="567.55" y2="2022.9" gradientUnits="userSpaceOnUse">
<stop stop-color="#CC5C54" stop-opacity="0"/>
<stop offset="0.18" stop-color="#C05B54" stop-opacity="0.11"/>
<stop offset="0.5" stop-color="#A15B56" stop-opacity="0.42"/>
<stop offset="0.93" stop-color="#6E5B59" stop-opacity="0.91"/>
<stop offset="1" stop-color="#665B5A"/>
</linearGradient>
<linearGradient id="paint6_linear_68_86" x1="439.96" y1="1762.44" x2="439.96" y2="2269.73" gradientUnits="userSpaceOnUse">
<stop stop-color="#C5A598"/>
<stop offset="0.33" stop-color="#C09489"/>
<stop offset="1" stop-color="#B8766F"/>
</linearGradient>
<linearGradient id="paint7_linear_68_86" x1="464.09" y1="1379.8" x2="464.09" y2="687.04" gradientUnits="userSpaceOnUse">
<stop stop-color="white"/>
<stop offset="0.01" stop-color="white" stop-opacity="0.96"/>
<stop offset="0.05" stop-color="white" stop-opacity="0.78"/>
<stop offset="0.1" stop-color="white" stop-opacity="0.61"/>
<stop offset="0.15" stop-color="white" stop-opacity="0.47"/>
<stop offset="0.2" stop-color="white" stop-opacity="0.34"/>
<stop offset="0.26" stop-color="white" stop-opacity="0.23"/>
<stop offset="0.32" stop-color="white" stop-opacity="0.15"/>
<stop offset="0.4" stop-color="white" stop-opacity="0.08"/>
<stop offset="0.5" stop-color="white" stop-opacity="0.03"/>
<stop offset="0.63" stop-color="white" stop-opacity="0"/>
<stop offset="1" stop-color="white" stop-opacity="0"/>
</linearGradient>
<linearGradient id="paint8_linear_68_86" x1="463.32" y1="1400.15" x2="463.32" y2="360.09" gradientUnits="userSpaceOnUse">
<stop stop-color="white"/>
<stop offset="0.04" stop-color="white" stop-opacity="0.89"/>
<stop offset="0.1" stop-color="white" stop-opacity="0.71"/>
<stop offset="0.17" stop-color="white" stop-opacity="0.54"/>
<stop offset="0.25" stop-color="white" stop-opacity="0.39"/>
<stop offset="0.33" stop-color="white" stop-opacity="0.27"/>
<stop offset="0.41" stop-color="white" stop-opacity="0.17"/>
<stop offset="0.51" stop-color="white" stop-opacity="0.09"/>
<stop offset="0.62" stop-color="white" stop-opacity="0.04"/>
<stop offset="0.75" stop-color="white" stop-opacity="0"/>
<stop offset="1" stop-color="white" stop-opacity="0"/>
</linearGradient>
<linearGradient id="paint9_linear_68_86" x1="493.89" y1="636.9" x2="493.89" y2="43.89" gradientUnits="userSpaceOnUse">
<stop stop-color="white"/>
<stop offset="0.04" stop-color="white" stop-opacity="0.89"/>
<stop offset="0.1" stop-color="white" stop-opacity="0.71"/>
<stop offset="0.17" stop-color="white" stop-opacity="0.54"/>
<stop offset="0.25" stop-color="white" stop-opacity="0.39"/>
<stop offset="0.33" stop-color="white" stop-opacity="0.27"/>
<stop offset="0.41" stop-color="white" stop-opacity="0.17"/>
<stop offset="0.51" stop-color="white" stop-opacity="0.09"/>
<stop offset="0.62" stop-color="white" stop-opacity="0.04"/>
<stop offset="0.75" stop-color="white" stop-opacity="0"/>
<stop offset="1" stop-color="white" stop-opacity="0"/>
</linearGradient>
<linearGradient id="paint10_linear_68_86" x1="447" y1="192.18" x2="447" y2="-212.16" gradientUnits="userSpaceOnUse">
<stop stop-color="white"/>
<stop offset="0.05" stop-color="white" stop-opacity="0.81"/>
<stop offset="0.1" stop-color="white" stop-opacity="0.64"/>
<stop offset="0.16" stop-color="white" stop-opacity="0.49"/>
<stop offset="0.22" stop-color="white" stop-opacity="0.36"/>
<stop offset="0.28" stop-color="white" stop-opacity="0.24"/>
<stop offset="0.36" stop-color="white" stop-opacity="0.15"/>
<stop offset="0.44" stop-color="white" stop-opacity="0.08"/>
<stop offset="0.54" stop-color="white" stop-opacity="0.04"/>
<stop offset="0.68" stop-color="white" stop-opacity="0"/>
<stop offset="1" stop-color="white" stop-opacity="0"/>
</linearGradient>
<clipPath id="clip0_68_86">
<rect width="920.96" height="1994.18" fill="white"/>
</clipPath>
</defs>
</svg>
