<svg width="921" height="1995" viewBox="0 0 921 1995" fill="none" xmlns="http://www.w3.org/2000/svg">
<g clip-path="url(#clip0_68_127)">
<path d="M920.96 -0.0200195H0V1994.16H920.96V-0.0200195Z" fill="url(#paint0_linear_68_127)"/>
<g opacity="0.5">
<path d="M920.96 524.28V526.64C920.71 526.64 920.47 526.55 920.28 526.38L861.97 472.68C861.59 472.33 861.56 471.73 861.92 471.35C862.27 470.97 862.87 470.94 863.25 471.3L920.96 524.28Z" fill="url(#paint1_linear_68_127)"/>
</g>
<g opacity="0.5">
<path d="M459.03 39.85C458.71 40.25 458.11 40.33 457.7 40L407.05 -0.0200195H410.26L458.88 38.52C459.28 38.85 459.36 39.44 459.03 39.85Z" fill="url(#paint2_linear_68_127)"/>
</g>
<g opacity="0.4">
<path d="M489.69 57.7199C489.31 58.0799 488.79 58.0699 488.43 57.7299L427.74 0.679932H451.77L489.83 56.0499C490.18 56.5599 490.12 57.3099 489.69 57.7199Z" fill="url(#paint3_linear_68_127)"/>
</g>
<g opacity="0.35">
<path d="M920.92 214.31V218.1L885.55 224.23C885.24 224.28 884.96 223.9 884.92 223.36C884.88 222.81 885.1 222.31 885.42 222.24L920.91 214.31H920.92Z" fill="url(#paint4_linear_68_127)"/>
</g>
<g opacity="0.2">
<path d="M920.96 74.1299V78.9599L876.57 115.36C876.15 115.69 875.53 115.64 875.17 115.24C874.81 114.82 874.86 114.18 875.27 113.82L920.96 74.1299Z" fill="url(#paint5_linear_68_127)"/>
</g>
<g opacity="0.2">
<path d="M339.16 440.91L7.16 616.97C4.87 618.19 2.43 618.81 0 618.89V583.98L338.3 439.11C338.81 438.89 339.39 439.13 339.61 439.63C339.82 440.12 339.61 440.67 339.16 440.91Z" fill="url(#paint6_linear_68_127)"/>
</g>
<g opacity="0.15">
<path d="M153.07 819.48L7.08 1001.19C5.07 1003.68 2.65 1005.64 0 1007.07V947.2L151.63 818.09C152.05 817.73 152.68 817.78 153.04 818.2C153.36 818.58 153.36 819.11 153.07 819.48Z" fill="url(#paint7_linear_68_127)"/>
</g>
<path opacity="0.12" d="M920.96 910.48V1654.05H396.12C380.39 1654.05 366.09 1645.11 359 1631.06C349.2 1611.65 343.69 1589.72 343.69 1566.5C343.69 1501.08 387.48 1445.88 447.34 1428.6C462.48 1424.23 470.48 1407.83 464.21 1393.37C453.51 1368.65 446.19 1342.11 442.83 1314.36C441.37 1302.4 440.65 1290.2 440.72 1277.83C440.74 1273.59 440.86 1269.37 441.07 1265.18C444.55 1194.85 473.68 1130.98 519.21 1082.75C545.69 1054.71 577.7 1031.96 613.45 1016.3C648.51 1000.94 687.16 992.41 727.68 992.39C734.42 992.39 741.08 992.63 747.69 993.09C784.23 942.87 843.47 910.2 910.34 910.2C913.9 910.2 917.44 910.29 920.96 910.48Z" fill="white"/>
<g opacity="0.6">
<path d="M355.51 781.09C397.07 830.98 435.45 884.31 472.29 937.71C573 1085.54 661.69 1242.56 737.22 1404.74C800.12 1538.97 853.95 1678.89 898.29 1820.38C906.53 1848.43 916.56 1880.12 924.08 1908.36L936.95 1955.54L938.56 1961.44C943.51 1981.08 949.78 2007.03 954.68 2026.73C959.09 2044.08 966.74 2080.81 970.7 2098.33L973.32 2110.27C973.75 2112.26 974.22 2114.25 974.61 2116.25L975.76 2122.25C979.05 2139.3 986.3 2177.25 989.59 2194.31L979.86 2196.01C976.66 2178.91 969.52 2140.33 966.48 2124.1C965.37 2117.6 962.97 2106.85 961.57 2100.22C957.7 2082.61 950.14 2045.38 946.01 2028.75C940.59 2006.67 934.42 1979.51 928.74 1957.66C924.09 1940.46 914.41 1903.4 909.78 1887C904.77 1869.98 897.62 1845.4 892.65 1828.48C853.81 1700.56 806.78 1573.56 752.59 1451.38C657.03 1235.99 540.22 1028.83 399.89 839.36C386.22 821.35 369.39 799.16 354.74 781.72L355.5 781.07L355.51 781.09Z" fill="white"/>
</g>
<path d="M825.46 1718.93C825.46 1736.6 823.28 1753.74 819.18 1770.13C814.79 1787.72 808.18 1804.43 799.67 1819.95C792.07 1833.78 777.57 1842.39 761.78 1842.39H0V1227.06C35.15 1204.16 77.13 1190.86 122.2 1190.86C180.97 1190.86 234.45 1213.48 274.44 1250.46C282.47 1257.9 294.08 1259.92 304.22 1255.76C335.19 1243.07 369.1 1236.07 404.66 1236.07C417.01 1236.07 429.17 1236.92 441.07 1238.56C485.87 1244.71 527.1 1262.08 561.84 1287.74C606.87 1320.99 640.99 1368.17 657.84 1422.92C665.43 1447.58 669.52 1473.78 669.52 1500.93C669.52 1505.14 670.84 1509.15 673.17 1512.45C675.5 1515.74 678.83 1518.32 682.82 1519.68C707.64 1528.12 730.38 1541.07 750.06 1557.55C772.83 1576.62 791.51 1600.41 804.57 1627.43C817.96 1655.09 825.46 1686.13 825.46 1718.93Z" fill="#B6E8FF"/>
<path d="M920.96 1388.82V1783.77H307.41C307.28 1783.54 307.14 1783.32 307 1783.09C294.28 1761.8 287.08 1736.81 287.43 1710.12C288.42 1632.24 352.67 1570.78 430.52 1573.1C445.61 1573.55 460.09 1576.41 473.6 1581.3C479.06 1583.28 484.76 1580.39 486.23 1574.77C486.82 1572.53 487.47 1570.31 488.2 1568.13C497.5 1539.95 517.81 1516.79 544.05 1503.72C549.56 1500.98 553.41 1495.71 554.12 1489.61C561.09 1430.23 602.51 1381.39 657.84 1363.62C666.88 1360.72 676.29 1358.64 685.98 1357.48C688.91 1357.13 691.86 1356.86 694.84 1356.68C697.81 1356.5 700.8 1356.41 703.82 1356.41H704.06C743.63 1356.41 779.63 1371.63 806.55 1396.53C811.97 1401.54 819.78 1402.9 826.61 1400.1C847.46 1391.55 870.29 1386.83 894.23 1386.83C903.31 1386.83 912.24 1387.51 920.96 1388.82Z" fill="#D0F4F7"/>
<g opacity="0.6">
<path d="M301.7 715.41L289.55 746.28C289.38 746.72 289.34 747.2 289.45 747.66L289.53 748C289.74 748.9 290.9 749.15 291.47 748.43L309.99 725.08L301.69 715.41H301.7Z" fill="white"/>
<path d="M306.18 711.56L338.54 704.24C339 704.14 339.48 704.18 339.92 704.35L340.25 704.48C341.1 704.83 341.18 706.01 340.38 706.47L314.49 721.23L306.19 711.56H306.18Z" fill="white"/>
<path d="M328.07 741.6C326.61 742.85 324.43 742.74 323.1 741.35L293.49 710.34C291.33 707.88 291.6 704.12 294.09 701.99C296.58 699.86 300.32 700.16 302.43 702.67L328.58 736.65C329.75 738.17 329.53 740.35 328.07 741.6Z" fill="white"/>
</g>
<path opacity="0.2" d="M221.53 1732.67C221.53 1732.67 518.43 1632.68 575.68 1633.45C632.93 1634.22 712.3 1671.61 745.12 1677.72C777.94 1683.83 221.53 1732.67 221.53 1732.67Z" fill="#AED097"/>
<path opacity="0.8" d="M344.85 1670.85C344.85 1670.85 42.5999 1531.94 -105.47 1528.89C-253.54 1525.84 -126.84 2000.58 -126.84 2000.58L294.47 2017.37L344.84 1670.85H344.85Z" fill="url(#paint8_linear_68_127)"/>
<path d="M964.4 1845.38L943.36 1647.41L946.03 1479.28L887.01 1500.65V1512.9C843.95 1520.57 776.94 1533.89 734.49 1549.12C734.49 1549.12 671.9 1528.51 584.51 1552.17C584.51 1552.17 455.3 1522.22 447.73 1520.55C440.25 1518.89 433.09 1517.37 426.54 1516.07L426.52 1504.98L377.67 1487.68L267.76 1531.69V1565.21C244.01 1566.01 222.55 1570.26 213.86 1572.2C211.44 1572.74 209.71 1574.85 209.64 1577.32L208.74 1831.39L267.76 1826.88V1834.96L427.02 1842.85L427 1826.54L887.01 1842.68V1853.54L939.93 1863.72L940.23 1844.55L964.4 1845.4V1845.38Z" fill="#FFBF8A"/>
<path d="M568.86 1546.19V1720.46L407.05 1719.02L415.45 1506.5L568.86 1546.19Z" fill="#C9EFF2"/>
<path d="M743.94 1542.37L894.66 1503.7L896.68 1714.87L747.81 1719.45L743.94 1542.37Z" fill="#C9EFF2"/>
<path d="M618.85 1628.53H602.91V1783.72H618.85V1628.53Z" fill="#FFDE82"/>
<path d="M716.04 1627.77H700.1V1782.96H716.04V1627.77Z" fill="#FFDE82"/>
<path d="M416.98 1872.35H384.79V1510.06L416.98 1519.22V1872.35Z" fill="#C9EFF2"/>
<path d="M585.1 1546.7V1633.88C585.1 1633.88 686.78 1622.18 735.12 1631.51V1543.99C735.12 1543.99 666.68 1523.64 585.1 1546.7Z" fill="#F4F2E9"/>
<path d="M-53.3099 1837.75C-53.3099 1837.75 756.75 1750.23 984.71 1744.12L998.96 2206.14L-118.44 2189.86L-53.3099 1837.75Z" fill="url(#paint9_linear_68_127)"/>
<path opacity="0.15" d="M920.96 0H0V1994.18H920.96V0Z" fill="url(#paint10_linear_68_127)"/>
<path opacity="0.2" d="M661.41 461.23C766.3 461.23 851.33 376.2 851.33 271.31C851.33 166.42 766.3 81.3899 661.41 81.3899C556.52 81.3899 471.49 166.42 471.49 271.31C471.49 376.2 556.52 461.23 661.41 461.23Z" fill="#FFFF9B"/>
<path opacity="0.4" d="M661.41 429.58C748.82 429.58 819.68 358.72 819.68 271.31C819.68 183.9 748.82 113.04 661.41 113.04C573.999 113.04 503.14 183.9 503.14 271.31C503.14 358.72 573.999 429.58 661.41 429.58Z" fill="#FFFF9B"/>
<path d="M661.41 381.22C722.112 381.22 771.32 332.012 771.32 271.31C771.32 210.608 722.112 161.4 661.41 161.4C600.708 161.4 551.5 210.608 551.5 271.31C551.5 332.012 600.708 381.22 661.41 381.22Z" fill="#FFFF9B"/>
</g>
<defs>
<linearGradient id="paint0_linear_68_127" x1="460.48" y1="-374.34" x2="460.48" y2="2046.85" gradientUnits="userSpaceOnUse">
<stop stop-color="#69AEFF"/>
<stop offset="0.19" stop-color="#71B6FF"/>
<stop offset="0.5" stop-color="#88CFFF"/>
<stop offset="0.76" stop-color="#A1E8FF"/>
<stop offset="0.82" stop-color="#A4E9FC"/>
<stop offset="0.87" stop-color="#AFECF5"/>
<stop offset="0.92" stop-color="#C2F1E9"/>
<stop offset="0.97" stop-color="#DCF9D8"/>
<stop offset="1" stop-color="#EEFFCD"/>
</linearGradient>
<linearGradient id="paint1_linear_68_127" x1="861.67" y1="498.85" x2="920.96" y2="498.85" gradientUnits="userSpaceOnUse">
<stop stop-color="white" stop-opacity="0"/>
<stop offset="0.36" stop-color="white" stop-opacity="0.45"/>
<stop offset="0.82" stop-color="white"/>
</linearGradient>
<linearGradient id="paint2_linear_68_127" x1="407.05" y1="20.1" x2="459.24" y2="20.1" gradientUnits="userSpaceOnUse">
<stop offset="0.18" stop-color="white"/>
<stop offset="0.64" stop-color="white" stop-opacity="0.45"/>
<stop offset="1" stop-color="white" stop-opacity="0"/>
</linearGradient>
<linearGradient id="paint3_linear_68_127" x1="428.48" y1="29.3399" x2="498.07" y2="29.3399" gradientUnits="userSpaceOnUse">
<stop offset="0.18" stop-color="white"/>
<stop offset="0.64" stop-color="white" stop-opacity="0.45"/>
<stop offset="1" stop-color="white" stop-opacity="0"/>
</linearGradient>
<linearGradient id="paint4_linear_68_127" x1="884.92" y1="219.28" x2="921.44" y2="219.28" gradientUnits="userSpaceOnUse">
<stop stop-color="white" stop-opacity="0"/>
<stop offset="0.36" stop-color="white" stop-opacity="0.45"/>
<stop offset="0.82" stop-color="white"/>
</linearGradient>
<linearGradient id="paint5_linear_68_127" x1="874.93" y1="94.8599" x2="921.62" y2="94.8599" gradientUnits="userSpaceOnUse">
<stop stop-color="white" stop-opacity="0"/>
<stop offset="0.36" stop-color="white" stop-opacity="0.45"/>
<stop offset="0.82" stop-color="white"/>
</linearGradient>
<linearGradient id="paint6_linear_68_127" x1="0.61" y1="528.96" x2="354.56" y2="528.96" gradientUnits="userSpaceOnUse">
<stop offset="0.18" stop-color="white"/>
<stop offset="0.64" stop-color="white" stop-opacity="0.45"/>
<stop offset="1" stop-color="white" stop-opacity="0"/>
</linearGradient>
<linearGradient id="paint7_linear_68_127" x1="1.31" y1="912.46" x2="173.69" y2="912.46" gradientUnits="userSpaceOnUse">
<stop offset="0.18" stop-color="white"/>
<stop offset="0.64" stop-color="white" stop-opacity="0.45"/>
<stop offset="1" stop-color="white" stop-opacity="0"/>
</linearGradient>
<linearGradient id="paint8_linear_68_127" x1="83.7699" y1="2298.41" x2="83.7699" y2="1326.71" gradientUnits="userSpaceOnUse">
<stop stop-color="#D0F4F7"/>
<stop offset="0.13" stop-color="#C8ECE2"/>
<stop offset="0.37" stop-color="#BDDFC1"/>
<stop offset="0.6" stop-color="#B4D7AA"/>
<stop offset="0.82" stop-color="#AFD19B"/>
<stop offset="1" stop-color="#AED097"/>
</linearGradient>
<linearGradient id="paint9_linear_68_127" x1="428.63" y1="1744.67" x2="437.79" y2="2101.87" gradientUnits="userSpaceOnUse">
<stop stop-color="#F4F2E9"/>
<stop offset="0.38" stop-color="#E7E0D4"/>
<stop offset="1" stop-color="#D6C7B6"/>
</linearGradient>
<linearGradient id="paint10_linear_68_127" x1="460.48" y1="-63.94" x2="460.48" y2="1972.72" gradientUnits="userSpaceOnUse">
<stop stop-color="#80B3F9" stop-opacity="0.2"/>
<stop offset="0.62" stop-color="#80B3F9" stop-opacity="0.71"/>
<stop offset="1" stop-color="#80B4F9"/>
</linearGradient>
<clipPath id="clip0_68_127">
<rect width="920.96" height="1994.18" fill="white"/>
</clipPath>
</defs>
</svg>
