<?xml version="1.0" encoding="UTF-8"?><svg id="Layer_2" xmlns="http://www.w3.org/2000/svg" viewBox="0 0 510.85 511.05"><defs><style>.cls-1{fill:#fff;}</style></defs><g id="Layer_1-2"><g><path class="cls-1" d="M360.15,0c4.77,2.02,8.41,5.43,11.96,9.12,44,45.8,88.07,91.53,132.12,137.28,8.81,9.16,8.82,17.31,.04,26.43-44.74,46.47-89.5,92.92-134.2,139.43-4.09,4.26-8.53,7.39-14.73,6.96-8.8-.61-14.82-7.52-14.86-17.43-.09-20.95-.15-41.9,.08-62.85,.04-4.04-1.18-4.8-4.95-4.81-22.28-.02-44.48-.09-66.25,6.06-48.55,13.72-84.75,42.72-108.96,86.88-1.19,2.18-2.26,4.46-3.71,6.46-4.04,5.58-10.92,7.95-17.16,6.12-6.74-1.98-11.63-7.21-11.69-13.9-.27-27.4-1.2-54.83,5.69-81.78,14.51-56.71,46.83-100.15,96.9-130.22,32.33-19.42,67.71-28.42,105.33-28.58,4.08-.02,4.8-1.26,4.77-4.98-.17-19.95,.16-39.91-.19-59.86-.17-9.92,3.2-16.92,12.82-20.33h6.98Z"/><path class="cls-1" d="M0,139.69c1.82-2.48,1.63-5.57,2.46-8.36,8.13-27.39,32.54-45.89,61.66-46.22,20.78-.24,41.56-.14,62.34-.01,13.27,.08,22.51,9.12,22.41,21.54-.1,12.35-9.48,21.05-22.84,21.07-20.12,.03-40.23-.01-60.35,.02-14.34,.02-23.01,8.57-23.01,22.9-.03,98.26-.03,196.52,0,294.78,0,14.34,8.58,22.78,23.06,22.79,126.51,.02,253.02,.02,379.53,0,14.35,0,22.86-8.56,22.87-22.99,.04-55.37,0-110.73,.03-166.1,0-13.66,8.28-23.19,20.4-23.65,12.19-.47,22.1,8.83,22.2,21.24,.15,19.29,.05,38.57,.05,57.86,0,36.74,.02,73.49,0,110.23-.03,38.3-27.71,66.06-65.93,66.07-125.84,.02-251.69-.31-377.53,.2-36.72,.15-62.7-26.1-66.49-53.97-.05-.4-.55-.74-.83-1.11,0-105.43,0-210.86,0-316.29Z"/></g></g></svg>